<?xml version="1.0" encoding="UTF-8" standalone="no"?>
<!DOCTYPE svg PUBLIC "-//W3C//DTD SVG 1.1//EN"
 "http://www.w3.org/Graphics/SVG/1.1/DTD/svg11.dtd">
<!-- Generated by graphviz version 12.2.1 (20241206.2353)
 -->
<!-- Pages: 1 -->
<svg width="512pt" height="260pt"
 viewBox="0.00 0.00 512.00 260.00" xmlns="http://www.w3.org/2000/svg" xmlns:xlink="http://www.w3.org/1999/xlink">
<g id="graph0" class="graph" transform="scale(1 1) rotate(0) translate(4 256)">
<polygon fill="white" stroke="none" points="-4,4 -4,-256 508,-256 508,4 -4,4"/>
<!-- input0 -->
<g id="node1" class="node">
<title>input0</title>
<ellipse fill="red" stroke="black" cx="36" cy="-216" rx="36" ry="36"/>
<text text-anchor="middle" x="36" y="-210.95" font-family="Times New Roman,serif" font-size="14.00">X0</text>
</g>
<!-- layer0_neuron0 -->
<g id="node4" class="node">
<title>layer0_neuron0</title>
<ellipse fill="yellow" stroke="black" cx="144" cy="-216" rx="36" ry="36"/>
<text text-anchor="middle" x="144" y="-210.95" font-family="Times New Roman,serif" font-size="14.00">H0_0</text>
</g>
<!-- input0&#45;&gt;layer0_neuron0 -->
<g id="edge1" class="edge">
<title>input0&#45;&gt;layer0_neuron0</title>
<path fill="none" stroke="black" d="M72.3,-216C80.07,-216 88.43,-216 96.57,-216"/>
<polygon fill="black" stroke="black" points="96.34,-219.5 106.34,-216 96.34,-212.5 96.34,-219.5"/>
</g>
<!-- layer0_neuron1 -->
<g id="node5" class="node">
<title>layer0_neuron1</title>
<ellipse fill="yellow" stroke="black" cx="144" cy="-126" rx="36" ry="36"/>
<text text-anchor="middle" x="144" y="-120.95" font-family="Times New Roman,serif" font-size="14.00">H0_1</text>
</g>
<!-- input0&#45;&gt;layer0_neuron1 -->
<g id="edge2" class="edge">
<title>input0&#45;&gt;layer0_neuron1</title>
<path fill="none" stroke="black" d="M64.02,-193.06C77.23,-181.84 93.3,-168.2 107.48,-156.16"/>
<polygon fill="black" stroke="black" points="109.52,-159.02 114.87,-149.88 104.98,-153.69 109.52,-159.02"/>
</g>
<!-- layer0_neuron2 -->
<g id="node6" class="node">
<title>layer0_neuron2</title>
<ellipse fill="yellow" stroke="black" cx="144" cy="-36" rx="36" ry="36"/>
<text text-anchor="middle" x="144" y="-30.95" font-family="Times New Roman,serif" font-size="14.00">H0_2</text>
</g>
<!-- input0&#45;&gt;layer0_neuron2 -->
<g id="edge3" class="edge">
<title>input0&#45;&gt;layer0_neuron2</title>
<path fill="none" stroke="black" d="M60.12,-188.77C64.37,-183.1 68.55,-177.01 72,-171 93.44,-133.63 86.56,-118.37 108,-81 109.62,-78.18 111.39,-75.35 113.26,-72.55"/>
<polygon fill="black" stroke="black" points="116.07,-74.64 119,-64.46 110.36,-70.59 116.07,-74.64"/>
</g>
<!-- input1 -->
<g id="node2" class="node">
<title>input1</title>
<ellipse fill="red" stroke="black" cx="36" cy="-126" rx="36" ry="36"/>
<text text-anchor="middle" x="36" y="-120.95" font-family="Times New Roman,serif" font-size="14.00">X1</text>
</g>
<!-- input1&#45;&gt;layer0_neuron0 -->
<g id="edge4" class="edge">
<title>input1&#45;&gt;layer0_neuron0</title>
<path fill="none" stroke="black" d="M64.02,-148.94C77.23,-160.16 93.3,-173.8 107.48,-185.84"/>
<polygon fill="black" stroke="black" points="104.98,-188.31 114.87,-192.12 109.52,-182.98 104.98,-188.31"/>
</g>
<!-- input1&#45;&gt;layer0_neuron1 -->
<g id="edge5" class="edge">
<title>input1&#45;&gt;layer0_neuron1</title>
<path fill="none" stroke="black" d="M72.3,-126C80.07,-126 88.43,-126 96.57,-126"/>
<polygon fill="black" stroke="black" points="96.34,-129.5 106.34,-126 96.34,-122.5 96.34,-129.5"/>
</g>
<!-- input1&#45;&gt;layer0_neuron2 -->
<g id="edge6" class="edge">
<title>input1&#45;&gt;layer0_neuron2</title>
<path fill="none" stroke="black" d="M64.02,-103.06C77.23,-91.84 93.3,-78.2 107.48,-66.16"/>
<polygon fill="black" stroke="black" points="109.52,-69.02 114.87,-59.88 104.98,-63.69 109.52,-69.02"/>
</g>
<!-- input2 -->
<g id="node3" class="node">
<title>input2</title>
<ellipse fill="red" stroke="black" cx="36" cy="-36" rx="36" ry="36"/>
<text text-anchor="middle" x="36" y="-30.95" font-family="Times New Roman,serif" font-size="14.00">X2</text>
</g>
<!-- input2&#45;&gt;layer0_neuron0 -->
<g id="edge7" class="edge">
<title>input2&#45;&gt;layer0_neuron0</title>
<path fill="none" stroke="black" d="M60.12,-63.23C64.37,-68.9 68.55,-74.99 72,-81 93.44,-118.37 86.56,-133.63 108,-171 109.62,-173.82 111.39,-176.65 113.26,-179.45"/>
<polygon fill="black" stroke="black" points="110.36,-181.41 119,-187.54 116.07,-177.36 110.36,-181.41"/>
</g>
<!-- input2&#45;&gt;layer0_neuron1 -->
<g id="edge8" class="edge">
<title>input2&#45;&gt;layer0_neuron1</title>
<path fill="none" stroke="black" d="M64.02,-58.94C77.23,-70.16 93.3,-83.8 107.48,-95.84"/>
<polygon fill="black" stroke="black" points="104.98,-98.31 114.87,-102.12 109.52,-92.98 104.98,-98.31"/>
</g>
<!-- input2&#45;&gt;layer0_neuron2 -->
<g id="edge9" class="edge">
<title>input2&#45;&gt;layer0_neuron2</title>
<path fill="none" stroke="black" d="M72.3,-36C80.07,-36 88.43,-36 96.57,-36"/>
<polygon fill="black" stroke="black" points="96.34,-39.5 106.34,-36 96.34,-32.5 96.34,-39.5"/>
</g>
<!-- layer1_neuron0 -->
<g id="node7" class="node">
<title>layer1_neuron0</title>
<ellipse fill="yellow" stroke="black" cx="252" cy="-216" rx="36" ry="36"/>
<text text-anchor="middle" x="252" y="-210.95" font-family="Times New Roman,serif" font-size="14.00">H1_0</text>
</g>
<!-- layer0_neuron0&#45;&gt;layer1_neuron0 -->
<g id="edge10" class="edge">
<title>layer0_neuron0&#45;&gt;layer1_neuron0</title>
<path fill="none" stroke="black" d="M180.3,-216C188.07,-216 196.43,-216 204.57,-216"/>
<polygon fill="black" stroke="black" points="204.34,-219.5 214.34,-216 204.34,-212.5 204.34,-219.5"/>
</g>
<!-- layer1_neuron1 -->
<g id="node8" class="node">
<title>layer1_neuron1</title>
<ellipse fill="yellow" stroke="black" cx="252" cy="-126" rx="36" ry="36"/>
<text text-anchor="middle" x="252" y="-120.95" font-family="Times New Roman,serif" font-size="14.00">H1_1</text>
</g>
<!-- layer0_neuron0&#45;&gt;layer1_neuron1 -->
<g id="edge11" class="edge">
<title>layer0_neuron0&#45;&gt;layer1_neuron1</title>
<path fill="none" stroke="black" d="M172.02,-193.06C185.23,-181.84 201.3,-168.2 215.48,-156.16"/>
<polygon fill="black" stroke="black" points="217.52,-159.02 222.87,-149.88 212.98,-153.69 217.52,-159.02"/>
</g>
<!-- layer1_neuron2 -->
<g id="node9" class="node">
<title>layer1_neuron2</title>
<ellipse fill="yellow" stroke="black" cx="252" cy="-36" rx="36" ry="36"/>
<text text-anchor="middle" x="252" y="-30.95" font-family="Times New Roman,serif" font-size="14.00">H1_2</text>
</g>
<!-- layer0_neuron0&#45;&gt;layer1_neuron2 -->
<g id="edge12" class="edge">
<title>layer0_neuron0&#45;&gt;layer1_neuron2</title>
<path fill="none" stroke="black" d="M168.12,-188.77C172.37,-183.1 176.55,-177.01 180,-171 201.44,-133.63 194.56,-118.37 216,-81 217.62,-78.18 219.39,-75.35 221.26,-72.55"/>
<polygon fill="black" stroke="black" points="224.07,-74.64 227,-64.46 218.36,-70.59 224.07,-74.64"/>
</g>
<!-- layer0_neuron1&#45;&gt;layer1_neuron0 -->
<g id="edge13" class="edge">
<title>layer0_neuron1&#45;&gt;layer1_neuron0</title>
<path fill="none" stroke="black" d="M172.02,-148.94C185.23,-160.16 201.3,-173.8 215.48,-185.84"/>
<polygon fill="black" stroke="black" points="212.98,-188.31 222.87,-192.12 217.52,-182.98 212.98,-188.31"/>
</g>
<!-- layer0_neuron1&#45;&gt;layer1_neuron1 -->
<g id="edge14" class="edge">
<title>layer0_neuron1&#45;&gt;layer1_neuron1</title>
<path fill="none" stroke="black" d="M180.3,-126C188.07,-126 196.43,-126 204.57,-126"/>
<polygon fill="black" stroke="black" points="204.34,-129.5 214.34,-126 204.34,-122.5 204.34,-129.5"/>
</g>
<!-- layer0_neuron1&#45;&gt;layer1_neuron2 -->
<g id="edge15" class="edge">
<title>layer0_neuron1&#45;&gt;layer1_neuron2</title>
<path fill="none" stroke="black" d="M172.02,-103.06C185.23,-91.84 201.3,-78.2 215.48,-66.16"/>
<polygon fill="black" stroke="black" points="217.52,-69.02 222.87,-59.88 212.98,-63.69 217.52,-69.02"/>
</g>
<!-- layer0_neuron2&#45;&gt;layer1_neuron0 -->
<g id="edge16" class="edge">
<title>layer0_neuron2&#45;&gt;layer1_neuron0</title>
<path fill="none" stroke="black" d="M168.12,-63.23C172.37,-68.9 176.55,-74.99 180,-81 201.44,-118.37 194.56,-133.63 216,-171 217.62,-173.82 219.39,-176.65 221.26,-179.45"/>
<polygon fill="black" stroke="black" points="218.36,-181.41 227,-187.54 224.07,-177.36 218.36,-181.41"/>
</g>
<!-- layer0_neuron2&#45;&gt;layer1_neuron1 -->
<g id="edge17" class="edge">
<title>layer0_neuron2&#45;&gt;layer1_neuron1</title>
<path fill="none" stroke="black" d="M172.02,-58.94C185.23,-70.16 201.3,-83.8 215.48,-95.84"/>
<polygon fill="black" stroke="black" points="212.98,-98.31 222.87,-102.12 217.52,-92.98 212.98,-98.31"/>
</g>
<!-- layer0_neuron2&#45;&gt;layer1_neuron2 -->
<g id="edge18" class="edge">
<title>layer0_neuron2&#45;&gt;layer1_neuron2</title>
<path fill="none" stroke="black" d="M180.3,-36C188.07,-36 196.43,-36 204.57,-36"/>
<polygon fill="black" stroke="black" points="204.34,-39.5 214.34,-36 204.34,-32.5 204.34,-39.5"/>
</g>
<!-- layer2_neuron0 -->
<g id="node10" class="node">
<title>layer2_neuron0</title>
<ellipse fill="yellow" stroke="black" cx="360" cy="-216" rx="36" ry="36"/>
<text text-anchor="middle" x="360" y="-210.95" font-family="Times New Roman,serif" font-size="14.00">H2_0</text>
</g>
<!-- layer1_neuron0&#45;&gt;layer2_neuron0 -->
<g id="edge19" class="edge">
<title>layer1_neuron0&#45;&gt;layer2_neuron0</title>
<path fill="none" stroke="black" d="M288.3,-216C296.07,-216 304.43,-216 312.57,-216"/>
<polygon fill="black" stroke="black" points="312.34,-219.5 322.34,-216 312.34,-212.5 312.34,-219.5"/>
</g>
<!-- layer2_neuron1 -->
<g id="node11" class="node">
<title>layer2_neuron1</title>
<ellipse fill="yellow" stroke="black" cx="360" cy="-126" rx="36" ry="36"/>
<text text-anchor="middle" x="360" y="-120.95" font-family="Times New Roman,serif" font-size="14.00">H2_1</text>
</g>
<!-- layer1_neuron0&#45;&gt;layer2_neuron1 -->
<g id="edge20" class="edge">
<title>layer1_neuron0&#45;&gt;layer2_neuron1</title>
<path fill="none" stroke="black" d="M280.02,-193.06C293.23,-181.84 309.3,-168.2 323.48,-156.16"/>
<polygon fill="black" stroke="black" points="325.52,-159.02 330.87,-149.88 320.98,-153.69 325.52,-159.02"/>
</g>
<!-- layer2_neuron2 -->
<g id="node12" class="node">
<title>layer2_neuron2</title>
<ellipse fill="yellow" stroke="black" cx="360" cy="-36" rx="36" ry="36"/>
<text text-anchor="middle" x="360" y="-30.95" font-family="Times New Roman,serif" font-size="14.00">H2_2</text>
</g>
<!-- layer1_neuron0&#45;&gt;layer2_neuron2 -->
<g id="edge21" class="edge">
<title>layer1_neuron0&#45;&gt;layer2_neuron2</title>
<path fill="none" stroke="black" d="M276.12,-188.77C280.37,-183.1 284.55,-177.01 288,-171 309.44,-133.63 302.56,-118.37 324,-81 325.62,-78.18 327.39,-75.35 329.26,-72.55"/>
<polygon fill="black" stroke="black" points="332.07,-74.64 335,-64.46 326.36,-70.59 332.07,-74.64"/>
</g>
<!-- layer1_neuron1&#45;&gt;layer2_neuron0 -->
<g id="edge22" class="edge">
<title>layer1_neuron1&#45;&gt;layer2_neuron0</title>
<path fill="none" stroke="black" d="M280.02,-148.94C293.23,-160.16 309.3,-173.8 323.48,-185.84"/>
<polygon fill="black" stroke="black" points="320.98,-188.31 330.87,-192.12 325.52,-182.98 320.98,-188.31"/>
</g>
<!-- layer1_neuron1&#45;&gt;layer2_neuron1 -->
<g id="edge23" class="edge">
<title>layer1_neuron1&#45;&gt;layer2_neuron1</title>
<path fill="none" stroke="black" d="M288.3,-126C296.07,-126 304.43,-126 312.57,-126"/>
<polygon fill="black" stroke="black" points="312.34,-129.5 322.34,-126 312.34,-122.5 312.34,-129.5"/>
</g>
<!-- layer1_neuron1&#45;&gt;layer2_neuron2 -->
<g id="edge24" class="edge">
<title>layer1_neuron1&#45;&gt;layer2_neuron2</title>
<path fill="none" stroke="black" d="M280.02,-103.06C293.23,-91.84 309.3,-78.2 323.48,-66.16"/>
<polygon fill="black" stroke="black" points="325.52,-69.02 330.87,-59.88 320.98,-63.69 325.52,-69.02"/>
</g>
<!-- layer1_neuron2&#45;&gt;layer2_neuron0 -->
<g id="edge25" class="edge">
<title>layer1_neuron2&#45;&gt;layer2_neuron0</title>
<path fill="none" stroke="black" d="M276.12,-63.23C280.37,-68.9 284.55,-74.99 288,-81 309.44,-118.37 302.56,-133.63 324,-171 325.62,-173.82 327.39,-176.65 329.26,-179.45"/>
<polygon fill="black" stroke="black" points="326.36,-181.41 335,-187.54 332.07,-177.36 326.36,-181.41"/>
</g>
<!-- layer1_neuron2&#45;&gt;layer2_neuron1 -->
<g id="edge26" class="edge">
<title>layer1_neuron2&#45;&gt;layer2_neuron1</title>
<path fill="none" stroke="black" d="M280.02,-58.94C293.23,-70.16 309.3,-83.8 323.48,-95.84"/>
<polygon fill="black" stroke="black" points="320.98,-98.31 330.87,-102.12 325.52,-92.98 320.98,-98.31"/>
</g>
<!-- layer1_neuron2&#45;&gt;layer2_neuron2 -->
<g id="edge27" class="edge">
<title>layer1_neuron2&#45;&gt;layer2_neuron2</title>
<path fill="none" stroke="black" d="M288.3,-36C296.07,-36 304.43,-36 312.57,-36"/>
<polygon fill="black" stroke="black" points="312.34,-39.5 322.34,-36 312.34,-32.5 312.34,-39.5"/>
</g>
<!-- layer3_neuron0 -->
<g id="node13" class="node">
<title>layer3_neuron0</title>
<ellipse fill="green" stroke="black" cx="468" cy="-171" rx="36" ry="36"/>
<text text-anchor="middle" x="468" y="-165.95" font-family="Times New Roman,serif" font-size="14.00">O1</text>
</g>
<!-- layer2_neuron0&#45;&gt;layer3_neuron0 -->
<g id="edge28" class="edge">
<title>layer2_neuron0&#45;&gt;layer3_neuron0</title>
<path fill="none" stroke="black" d="M393.67,-202.13C403.24,-198.07 413.85,-193.56 423.97,-189.27"/>
<polygon fill="black" stroke="black" points="425.03,-192.62 432.86,-185.49 422.29,-186.18 425.03,-192.62"/>
</g>
<!-- layer3_neuron1 -->
<g id="node14" class="node">
<title>layer3_neuron1</title>
<ellipse fill="green" stroke="black" cx="468" cy="-81" rx="36" ry="36"/>
<text text-anchor="middle" x="468" y="-75.95" font-family="Times New Roman,serif" font-size="14.00">O2</text>
</g>
<!-- layer2_neuron0&#45;&gt;layer3_neuron1 -->
<g id="edge29" class="edge">
<title>layer2_neuron0&#45;&gt;layer3_neuron1</title>
<path fill="none" stroke="black" d="M382.96,-188.03C398.95,-167.66 420.76,-139.89 438.15,-117.74"/>
<polygon fill="black" stroke="black" points="440.71,-120.15 444.13,-110.13 435.2,-115.83 440.71,-120.15"/>
</g>
<!-- layer2_neuron1&#45;&gt;layer3_neuron0 -->
<g id="edge30" class="edge">
<title>layer2_neuron1&#45;&gt;layer3_neuron0</title>
<path fill="none" stroke="black" d="M393.67,-139.87C403.24,-143.93 413.85,-148.44 423.97,-152.73"/>
<polygon fill="black" stroke="black" points="422.29,-155.82 432.86,-156.51 425.03,-149.38 422.29,-155.82"/>
</g>
<!-- layer2_neuron1&#45;&gt;layer3_neuron1 -->
<g id="edge31" class="edge">
<title>layer2_neuron1&#45;&gt;layer3_neuron1</title>
<path fill="none" stroke="black" d="M393.67,-112.13C403.24,-108.07 413.85,-103.56 423.97,-99.27"/>
<polygon fill="black" stroke="black" points="425.03,-102.62 432.86,-95.49 422.29,-96.18 425.03,-102.62"/>
</g>
<!-- layer2_neuron2&#45;&gt;layer3_neuron0 -->
<g id="edge32" class="edge">
<title>layer2_neuron2&#45;&gt;layer3_neuron0</title>
<path fill="none" stroke="black" d="M382.96,-63.97C398.95,-84.34 420.76,-112.11 438.15,-134.26"/>
<polygon fill="black" stroke="black" points="435.2,-136.17 444.13,-141.87 440.71,-131.85 435.2,-136.17"/>
</g>
<!-- layer2_neuron2&#45;&gt;layer3_neuron1 -->
<g id="edge33" class="edge">
<title>layer2_neuron2&#45;&gt;layer3_neuron1</title>
<path fill="none" stroke="black" d="M393.67,-49.87C403.24,-53.93 413.85,-58.44 423.97,-62.73"/>
<polygon fill="black" stroke="black" points="422.29,-65.82 432.86,-66.51 425.03,-59.38 422.29,-65.82"/>
</g>
</g>
</svg>
