<?xml version="1.0" encoding="UTF-8" standalone="no"?>
<!DOCTYPE svg PUBLIC "-//W3C//DTD SVG 1.1//EN"
 "http://www.w3.org/Graphics/SVG/1.1/DTD/svg11.dtd">
<!-- Generated by graphviz version 12.2.1 (20241206.2353)
 -->
<!-- Pages: 1 -->
<svg width="511pt" height="1082pt"
 viewBox="0.00 0.00 510.63 1082.24" xmlns="http://www.w3.org/2000/svg" xmlns:xlink="http://www.w3.org/1999/xlink">
<g id="graph0" class="graph" transform="scale(1 1) rotate(0) translate(4 1078.24)">
<polygon fill="white" stroke="none" points="-4,4 -4,-1078.24 506.63,-1078.24 506.63,4 -4,4"/>
<!-- layer0_neuron0 -->
<g id="node1" class="node">
<title>layer0_neuron0</title>
<ellipse fill="lightblue" stroke="black" cx="76.01" cy="-622.12" rx="76.01" ry="76.01"/>
<text text-anchor="middle" x="76.01" y="-625.32" font-family="Times New Roman,serif" font-size="14.00">Neuron 0</text>
<text text-anchor="middle" x="76.01" y="-608.82" font-family="Times New Roman,serif" font-size="14.00">LinearNeuron(3)</text>
</g>
<!-- layer1_neuron0 -->
<g id="node3" class="node">
<title>layer1_neuron0</title>
<ellipse fill="lightblue" stroke="black" cx="257.15" cy="-69.12" rx="69.12" ry="69.12"/>
<text text-anchor="middle" x="257.15" y="-72.32" font-family="Times New Roman,serif" font-size="14.00">Neuron 0</text>
<text text-anchor="middle" x="257.15" y="-55.82" font-family="Times New Roman,serif" font-size="14.00">ReluNeuron(2)</text>
</g>
<!-- layer0_neuron0&#45;&gt;layer1_neuron0 -->
<g id="edge1" class="edge">
<title>layer0_neuron0&#45;&gt;layer1_neuron0</title>
<path fill="none" stroke="black" d="M131.88,-569.92C139.85,-559.78 147.04,-548.68 152.03,-537.12 221.02,-377.31 119.45,-307.11 188.03,-147.12 191.19,-139.74 195.33,-132.55 200,-125.72"/>
<polygon fill="black" stroke="black" points="202.67,-128 205.77,-117.87 197.03,-123.86 202.67,-128"/>
</g>
<!-- layer1_neuron1 -->
<g id="node4" class="node">
<title>layer1_neuron1</title>
<ellipse fill="lightblue" stroke="black" cx="257.15" cy="-1005.12" rx="69.12" ry="69.12"/>
<text text-anchor="middle" x="257.15" y="-1008.32" font-family="Times New Roman,serif" font-size="14.00">Neuron 1</text>
<text text-anchor="middle" x="257.15" y="-991.82" font-family="Times New Roman,serif" font-size="14.00">ReluNeuron(2)</text>
</g>
<!-- layer0_neuron0&#45;&gt;layer1_neuron1 -->
<g id="edge2" class="edge">
<title>layer0_neuron0&#45;&gt;layer1_neuron1</title>
<path fill="none" stroke="black" d="M95.62,-696.03C113.6,-759.98 144.54,-853.49 188.03,-927.12 192.05,-933.93 196.7,-940.71 201.65,-947.25"/>
<polygon fill="black" stroke="black" points="198.68,-949.14 207.61,-954.84 204.18,-944.81 198.68,-949.14"/>
</g>
<!-- layer1_neuron2 -->
<g id="node5" class="node">
<title>layer1_neuron2</title>
<ellipse fill="lightblue" stroke="black" cx="257.15" cy="-849.12" rx="69.12" ry="69.12"/>
<text text-anchor="middle" x="257.15" y="-852.32" font-family="Times New Roman,serif" font-size="14.00">Neuron 2</text>
<text text-anchor="middle" x="257.15" y="-835.82" font-family="Times New Roman,serif" font-size="14.00">ReluNeuron(2)</text>
</g>
<!-- layer0_neuron0&#45;&gt;layer1_neuron2 -->
<g id="edge3" class="edge">
<title>layer0_neuron0&#45;&gt;layer1_neuron2</title>
<path fill="none" stroke="black" d="M121.07,-683.47C141.03,-710.69 165.23,-742.88 188.03,-771.12 192.92,-777.18 198.1,-783.42 203.35,-789.61"/>
<polygon fill="black" stroke="black" points="200.37,-791.51 209.52,-796.84 205.69,-786.97 200.37,-791.51"/>
</g>
<!-- layer1_neuron3 -->
<g id="node6" class="node">
<title>layer1_neuron3</title>
<ellipse fill="lightblue" stroke="black" cx="257.15" cy="-693.12" rx="69.12" ry="69.12"/>
<text text-anchor="middle" x="257.15" y="-696.32" font-family="Times New Roman,serif" font-size="14.00">Neuron 3</text>
<text text-anchor="middle" x="257.15" y="-679.82" font-family="Times New Roman,serif" font-size="14.00">ReluNeuron(2)</text>
</g>
<!-- layer0_neuron0&#45;&gt;layer1_neuron3 -->
<g id="edge4" class="edge">
<title>layer0_neuron0&#45;&gt;layer1_neuron3</title>
<path fill="none" stroke="black" d="M147.04,-649.88C158.46,-654.4 170.33,-659.1 181.84,-663.67"/>
<polygon fill="black" stroke="black" points="180.31,-666.83 190.89,-667.26 182.89,-660.32 180.31,-666.83"/>
</g>
<!-- layer1_neuron4 -->
<g id="node7" class="node">
<title>layer1_neuron4</title>
<ellipse fill="lightblue" stroke="black" cx="257.15" cy="-537.12" rx="69.12" ry="69.12"/>
<text text-anchor="middle" x="257.15" y="-540.32" font-family="Times New Roman,serif" font-size="14.00">Neuron 4</text>
<text text-anchor="middle" x="257.15" y="-523.82" font-family="Times New Roman,serif" font-size="14.00">ReluNeuron(2)</text>
</g>
<!-- layer0_neuron0&#45;&gt;layer1_neuron4 -->
<g id="edge5" class="edge">
<title>layer0_neuron0&#45;&gt;layer1_neuron4</title>
<path fill="none" stroke="black" d="M145.25,-589.74C157.96,-583.71 171.29,-577.38 184.12,-571.3"/>
<polygon fill="black" stroke="black" points="185.37,-574.58 192.91,-567.13 182.37,-568.25 185.37,-574.58"/>
</g>
<!-- layer1_neuron5 -->
<g id="node8" class="node">
<title>layer1_neuron5</title>
<ellipse fill="lightblue" stroke="black" cx="257.15" cy="-381.12" rx="69.12" ry="69.12"/>
<text text-anchor="middle" x="257.15" y="-384.32" font-family="Times New Roman,serif" font-size="14.00">Neuron 5</text>
<text text-anchor="middle" x="257.15" y="-367.82" font-family="Times New Roman,serif" font-size="14.00">ReluNeuron(2)</text>
</g>
<!-- layer0_neuron0&#45;&gt;layer1_neuron5 -->
<g id="edge6" class="edge">
<title>layer0_neuron0&#45;&gt;layer1_neuron5</title>
<path fill="none" stroke="black" d="M129.09,-567.74C137.27,-557.93 145.26,-547.51 152.03,-537.12 172.88,-505.14 167.26,-491.16 188.03,-459.12 192.26,-452.59 197.02,-446.03 201.99,-439.65"/>
<polygon fill="black" stroke="black" points="204.4,-442.24 207.93,-432.25 198.94,-437.85 204.4,-442.24"/>
</g>
<!-- layer1_neuron6 -->
<g id="node9" class="node">
<title>layer1_neuron6</title>
<ellipse fill="lightblue" stroke="black" cx="257.15" cy="-225.12" rx="69.12" ry="69.12"/>
<text text-anchor="middle" x="257.15" y="-228.32" font-family="Times New Roman,serif" font-size="14.00">Neuron 6</text>
<text text-anchor="middle" x="257.15" y="-211.82" font-family="Times New Roman,serif" font-size="14.00">ReluNeuron(2)</text>
</g>
<!-- layer0_neuron0&#45;&gt;layer1_neuron6 -->
<g id="edge7" class="edge">
<title>layer0_neuron0&#45;&gt;layer1_neuron6</title>
<path fill="none" stroke="black" d="M131.29,-569.65C139.33,-559.54 146.69,-548.53 152.03,-537.12 196.64,-441.82 143.66,-398.53 188.03,-303.12 191.42,-295.83 195.7,-288.72 200.45,-281.93"/>
<polygon fill="black" stroke="black" points="203.12,-284.21 206.3,-274.1 197.51,-280.02 203.12,-284.21"/>
</g>
<!-- layer0_neuron1 -->
<g id="node2" class="node">
<title>layer0_neuron1</title>
<ellipse fill="lightblue" stroke="black" cx="76.01" cy="-452.12" rx="76.01" ry="76.01"/>
<text text-anchor="middle" x="76.01" y="-455.32" font-family="Times New Roman,serif" font-size="14.00">Neuron 1</text>
<text text-anchor="middle" x="76.01" y="-438.82" font-family="Times New Roman,serif" font-size="14.00">LinearNeuron(3)</text>
</g>
<!-- layer0_neuron1&#45;&gt;layer1_neuron0 -->
<g id="edge8" class="edge">
<title>layer0_neuron1&#45;&gt;layer1_neuron0</title>
<path fill="none" stroke="black" d="M95.62,-378.21C113.6,-314.26 144.54,-220.75 188.03,-147.12 192.05,-140.31 196.7,-133.53 201.65,-126.99"/>
<polygon fill="black" stroke="black" points="204.18,-129.43 207.61,-119.4 198.68,-125.1 204.18,-129.43"/>
</g>
<!-- layer0_neuron1&#45;&gt;layer1_neuron1 -->
<g id="edge9" class="edge">
<title>layer0_neuron1&#45;&gt;layer1_neuron1</title>
<path fill="none" stroke="black" d="M131.88,-504.32C139.85,-514.46 147.04,-525.56 152.03,-537.12 221.02,-696.93 119.45,-767.13 188.03,-927.12 191.19,-934.5 195.33,-941.69 200,-948.51"/>
<polygon fill="black" stroke="black" points="197.03,-950.38 205.77,-956.37 202.67,-946.24 197.03,-950.38"/>
</g>
<!-- layer0_neuron1&#45;&gt;layer1_neuron2 -->
<g id="edge10" class="edge">
<title>layer0_neuron1&#45;&gt;layer1_neuron2</title>
<path fill="none" stroke="black" d="M131.29,-504.59C139.33,-514.7 146.69,-525.71 152.03,-537.12 196.64,-632.42 143.66,-675.71 188.03,-771.12 191.42,-778.4 195.7,-785.52 200.45,-792.31"/>
<polygon fill="black" stroke="black" points="197.51,-794.22 206.3,-800.13 203.12,-790.03 197.51,-794.22"/>
</g>
<!-- layer0_neuron1&#45;&gt;layer1_neuron3 -->
<g id="edge11" class="edge">
<title>layer0_neuron1&#45;&gt;layer1_neuron3</title>
<path fill="none" stroke="black" d="M129.09,-506.5C137.27,-516.31 145.26,-526.73 152.03,-537.12 172.88,-569.1 167.26,-583.08 188.03,-615.12 192.26,-621.65 197.02,-628.21 201.99,-634.59"/>
<polygon fill="black" stroke="black" points="198.94,-636.39 207.93,-641.99 204.4,-632 198.94,-636.39"/>
</g>
<!-- layer0_neuron1&#45;&gt;layer1_neuron4 -->
<g id="edge12" class="edge">
<title>layer0_neuron1&#45;&gt;layer1_neuron4</title>
<path fill="none" stroke="black" d="M145.25,-484.5C157.96,-490.53 171.29,-496.85 184.12,-502.94"/>
<polygon fill="black" stroke="black" points="182.37,-505.99 192.91,-507.11 185.37,-499.66 182.37,-505.99"/>
</g>
<!-- layer0_neuron1&#45;&gt;layer1_neuron5 -->
<g id="edge13" class="edge">
<title>layer0_neuron1&#45;&gt;layer1_neuron5</title>
<path fill="none" stroke="black" d="M147.04,-424.36C158.46,-419.84 170.33,-415.14 181.84,-410.57"/>
<polygon fill="black" stroke="black" points="182.89,-413.92 190.89,-406.98 180.31,-407.41 182.89,-413.92"/>
</g>
<!-- layer0_neuron1&#45;&gt;layer1_neuron6 -->
<g id="edge14" class="edge">
<title>layer0_neuron1&#45;&gt;layer1_neuron6</title>
<path fill="none" stroke="black" d="M121.07,-390.77C141.03,-363.55 165.23,-331.36 188.03,-303.12 192.92,-297.06 198.1,-290.82 203.35,-284.63"/>
<polygon fill="black" stroke="black" points="205.69,-287.27 209.52,-277.4 200.37,-282.73 205.69,-287.27"/>
</g>
<!-- layer2_neuron0 -->
<g id="node10" class="node">
<title>layer2_neuron0</title>
<ellipse fill="lightblue" stroke="black" cx="432.45" cy="-616.12" rx="70.18" ry="70.18"/>
<text text-anchor="middle" x="432.45" y="-619.32" font-family="Times New Roman,serif" font-size="14.00">Neuron 0</text>
<text text-anchor="middle" x="432.45" y="-602.82" font-family="Times New Roman,serif" font-size="14.00">TanhNeuron(7)</text>
</g>
<!-- layer1_neuron0&#45;&gt;layer2_neuron0 -->
<g id="edge15" class="edge">
<title>layer1_neuron0&#45;&gt;layer2_neuron0</title>
<path fill="none" stroke="black" d="M307.63,-116.65C315.01,-126.06 321.66,-136.38 326.27,-147.12 394.85,-307.11 293.58,-377.18 362.27,-537.12 365.48,-544.61 369.68,-551.89 374.43,-558.8"/>
<polygon fill="black" stroke="black" points="371.55,-560.8 380.29,-566.78 377.19,-556.65 371.55,-560.8"/>
</g>
<!-- layer2_neuron1 -->
<g id="node11" class="node">
<title>layer2_neuron1</title>
<ellipse fill="lightblue" stroke="black" cx="432.45" cy="-458.12" rx="70.18" ry="70.18"/>
<text text-anchor="middle" x="432.45" y="-461.32" font-family="Times New Roman,serif" font-size="14.00">Neuron 1</text>
<text text-anchor="middle" x="432.45" y="-444.82" font-family="Times New Roman,serif" font-size="14.00">TanhNeuron(7)</text>
</g>
<!-- layer1_neuron0&#45;&gt;layer2_neuron1 -->
<g id="edge16" class="edge">
<title>layer1_neuron0&#45;&gt;layer2_neuron1</title>
<path fill="none" stroke="black" d="M305.94,-118.1C313.4,-127.28 320.53,-137.15 326.27,-147.12 368.45,-220.45 397.07,-313.28 413.68,-378.36"/>
<polygon fill="black" stroke="black" points="410.25,-379.05 416.07,-387.89 417.03,-377.34 410.25,-379.05"/>
</g>
<!-- layer1_neuron1&#45;&gt;layer2_neuron0 -->
<g id="edge17" class="edge">
<title>layer1_neuron1&#45;&gt;layer2_neuron0</title>
<path fill="none" stroke="black" d="M305.94,-956.14C313.4,-946.96 320.53,-937.09 326.27,-927.12 368.45,-853.79 397.07,-760.96 413.68,-695.88"/>
<polygon fill="black" stroke="black" points="417.03,-696.9 416.07,-686.34 410.25,-695.19 417.03,-696.9"/>
</g>
<!-- layer1_neuron1&#45;&gt;layer2_neuron1 -->
<g id="edge18" class="edge">
<title>layer1_neuron1&#45;&gt;layer2_neuron1</title>
<path fill="none" stroke="black" d="M307.63,-957.59C315.01,-948.18 321.66,-937.86 326.27,-927.12 394.85,-767.13 293.58,-697.06 362.27,-537.12 365.48,-529.63 369.68,-522.35 374.43,-515.44"/>
<polygon fill="black" stroke="black" points="377.19,-517.59 380.29,-507.46 371.55,-513.44 377.19,-517.59"/>
</g>
<!-- layer1_neuron2&#45;&gt;layer2_neuron0 -->
<g id="edge19" class="edge">
<title>layer1_neuron2&#45;&gt;layer2_neuron0</title>
<path fill="none" stroke="black" d="M304.13,-798.26C311.71,-789.37 319.35,-780.09 326.27,-771.12 347.5,-743.59 369.34,-712.03 387.58,-684.6"/>
<polygon fill="black" stroke="black" points="390.44,-686.62 393.04,-676.35 384.6,-682.76 390.44,-686.62"/>
</g>
<!-- layer1_neuron2&#45;&gt;layer2_neuron1 -->
<g id="edge20" class="edge">
<title>layer1_neuron2&#45;&gt;layer2_neuron1</title>
<path fill="none" stroke="black" d="M307.09,-801.35C314.52,-791.96 321.34,-781.72 326.27,-771.12 370.64,-675.71 317.84,-632.5 362.27,-537.12 365.65,-529.85 369.92,-522.74 374.66,-515.96"/>
<polygon fill="black" stroke="black" points="377.32,-518.25 380.49,-508.14 371.71,-514.07 377.32,-518.25"/>
</g>
<!-- layer1_neuron3&#45;&gt;layer2_neuron0 -->
<g id="edge21" class="edge">
<title>layer1_neuron3&#45;&gt;layer2_neuron0</title>
<path fill="none" stroke="black" d="M320.71,-665.32C332.68,-660 345.31,-654.39 357.6,-648.93"/>
<polygon fill="black" stroke="black" points="358.71,-652.27 366.43,-645.01 355.87,-645.87 358.71,-652.27"/>
</g>
<!-- layer1_neuron3&#45;&gt;layer2_neuron1 -->
<g id="edge22" class="edge">
<title>layer1_neuron3&#45;&gt;layer2_neuron1</title>
<path fill="none" stroke="black" d="M305.42,-643.17C312.85,-634.17 320.11,-624.62 326.27,-615.12 347.04,-583.08 341.48,-569.14 362.27,-537.12 366.57,-530.5 371.39,-523.85 376.44,-517.39"/>
<polygon fill="black" stroke="black" points="378.94,-519.86 382.49,-509.87 373.49,-515.47 378.94,-519.86"/>
</g>
<!-- layer1_neuron4&#45;&gt;layer2_neuron0 -->
<g id="edge23" class="edge">
<title>layer1_neuron4&#45;&gt;layer2_neuron0</title>
<path fill="none" stroke="black" d="M320.22,-565.42C332.36,-570.95 345.21,-576.81 357.68,-582.49"/>
<polygon fill="black" stroke="black" points="356.13,-585.63 366.68,-586.59 359.03,-579.26 356.13,-585.63"/>
</g>
<!-- layer1_neuron4&#45;&gt;layer2_neuron1 -->
<g id="edge24" class="edge">
<title>layer1_neuron4&#45;&gt;layer2_neuron1</title>
<path fill="none" stroke="black" d="M320.22,-508.82C332.36,-503.29 345.21,-497.43 357.68,-491.75"/>
<polygon fill="black" stroke="black" points="359.03,-494.98 366.68,-487.65 356.13,-488.61 359.03,-494.98"/>
</g>
<!-- layer1_neuron5&#45;&gt;layer2_neuron0 -->
<g id="edge25" class="edge">
<title>layer1_neuron5&#45;&gt;layer2_neuron0</title>
<path fill="none" stroke="black" d="M305.42,-431.07C312.85,-440.07 320.11,-449.62 326.27,-459.12 347.04,-491.16 341.48,-505.1 362.27,-537.12 366.57,-543.74 371.39,-550.39 376.44,-556.85"/>
<polygon fill="black" stroke="black" points="373.49,-558.77 382.49,-564.37 378.94,-554.38 373.49,-558.77"/>
</g>
<!-- layer1_neuron5&#45;&gt;layer2_neuron1 -->
<g id="edge26" class="edge">
<title>layer1_neuron5&#45;&gt;layer2_neuron1</title>
<path fill="none" stroke="black" d="M320.71,-408.92C332.68,-414.24 345.31,-419.85 357.6,-425.31"/>
<polygon fill="black" stroke="black" points="355.87,-428.37 366.43,-429.23 358.71,-421.97 355.87,-428.37"/>
</g>
<!-- layer1_neuron6&#45;&gt;layer2_neuron0 -->
<g id="edge27" class="edge">
<title>layer1_neuron6&#45;&gt;layer2_neuron0</title>
<path fill="none" stroke="black" d="M307.09,-272.89C314.52,-282.28 321.34,-292.52 326.27,-303.12 370.64,-398.53 317.84,-441.74 362.27,-537.12 365.65,-544.39 369.92,-551.5 374.66,-558.28"/>
<polygon fill="black" stroke="black" points="371.71,-560.17 380.49,-566.1 377.32,-555.99 371.71,-560.17"/>
</g>
<!-- layer1_neuron6&#45;&gt;layer2_neuron1 -->
<g id="edge28" class="edge">
<title>layer1_neuron6&#45;&gt;layer2_neuron1</title>
<path fill="none" stroke="black" d="M304.13,-275.98C311.71,-284.87 319.35,-294.15 326.27,-303.12 347.5,-330.65 369.34,-362.21 387.58,-389.64"/>
<polygon fill="black" stroke="black" points="384.6,-391.48 393.04,-397.89 390.44,-387.62 384.6,-391.48"/>
</g>
</g>
</svg>
