<?xml version="1.0" encoding="UTF-8" standalone="no"?>
<!DOCTYPE svg PUBLIC "-//W3C//DTD SVG 1.1//EN"
 "http://www.w3.org/Graphics/SVG/1.1/DTD/svg11.dtd">
<!-- Generated by graphviz version 12.2.1 (20241206.2353)
 -->
<!-- Pages: 1 -->
<svg width="404pt" height="716pt"
 viewBox="0.00 0.00 404.00 715.80" xmlns="http://www.w3.org/2000/svg" xmlns:xlink="http://www.w3.org/1999/xlink">
<g id="graph0" class="graph" transform="scale(1 1) rotate(0) translate(4 711.8)">
<polygon fill="white" stroke="none" points="-4,4 -4,-711.8 400,-711.8 400,4 -4,4"/>
<!-- input0 -->
<g id="node1" class="node">
<title>input0</title>
<ellipse fill="red" stroke="black" cx="36" cy="-581.8" rx="36" ry="36"/>
<text text-anchor="middle" x="36" y="-576.75" font-family="Times New Roman,serif" font-size="14.00">X1</text>
</g>
<!-- layer0_neuron0 -->
<g id="node4" class="node">
<title>layer0_neuron0</title>
<ellipse fill="yellow" stroke="black" cx="144" cy="-401.8" rx="36" ry="36"/>
<text text-anchor="middle" x="144" y="-396.75" font-family="Times New Roman,serif" font-size="14.00">H1_1</text>
</g>
<!-- input0&#45;&gt;layer0_neuron0 -->
<g id="edge13" class="edge">
<title>input0&#45;&gt;layer0_neuron0</title>
<path fill="none" stroke="black" d="M60.12,-554.57C64.37,-548.9 68.55,-542.81 72,-536.8 93.44,-499.43 86.56,-484.17 108,-446.8 109.62,-443.98 111.39,-441.15 113.26,-438.35"/>
<polygon fill="black" stroke="black" points="116.07,-440.44 119,-430.26 110.36,-436.39 116.07,-440.44"/>
</g>
<!-- layer0_neuron1 -->
<g id="node5" class="node">
<title>layer0_neuron1</title>
<ellipse fill="yellow" stroke="black" cx="144" cy="-311.8" rx="36" ry="36"/>
<text text-anchor="middle" x="144" y="-306.75" font-family="Times New Roman,serif" font-size="14.00">H1_2</text>
</g>
<!-- input0&#45;&gt;layer0_neuron1 -->
<g id="edge14" class="edge">
<title>input0&#45;&gt;layer0_neuron1</title>
<path fill="none" stroke="black" d="M60.66,-555.52C64.97,-549.67 69.03,-543.28 72,-536.8 105.95,-462.62 74.05,-430.98 108,-356.8 109.44,-353.66 111.13,-350.54 112.99,-347.5"/>
<polygon fill="black" stroke="black" points="115.8,-349.58 118.5,-339.34 110,-345.66 115.8,-349.58"/>
</g>
<!-- layer0_neuron2 -->
<g id="node6" class="node">
<title>layer0_neuron2</title>
<ellipse fill="yellow" stroke="black" cx="144" cy="-671.8" rx="36" ry="36"/>
<text text-anchor="middle" x="144" y="-666.75" font-family="Times New Roman,serif" font-size="14.00">H1_3</text>
</g>
<!-- input0&#45;&gt;layer0_neuron2 -->
<g id="edge15" class="edge">
<title>input0&#45;&gt;layer0_neuron2</title>
<path fill="none" stroke="black" d="M64.02,-604.74C77.23,-615.96 93.3,-629.6 107.48,-641.64"/>
<polygon fill="black" stroke="black" points="104.98,-644.11 114.87,-647.92 109.52,-638.78 104.98,-644.11"/>
</g>
<!-- layer0_neuron3 -->
<g id="node7" class="node">
<title>layer0_neuron3</title>
<ellipse fill="yellow" stroke="black" cx="144" cy="-581.8" rx="36" ry="36"/>
<text text-anchor="middle" x="144" y="-576.75" font-family="Times New Roman,serif" font-size="14.00">H1_4</text>
</g>
<!-- input0&#45;&gt;layer0_neuron3 -->
<g id="edge16" class="edge">
<title>input0&#45;&gt;layer0_neuron3</title>
<path fill="none" stroke="black" d="M72.3,-581.8C80.07,-581.8 88.43,-581.8 96.57,-581.8"/>
<polygon fill="black" stroke="black" points="96.34,-585.3 106.34,-581.8 96.34,-578.3 96.34,-585.3"/>
</g>
<!-- layer0_neuron4 -->
<g id="node8" class="node">
<title>layer0_neuron4</title>
<ellipse fill="yellow" stroke="black" cx="144" cy="-491.8" rx="36" ry="36"/>
<text text-anchor="middle" x="144" y="-486.75" font-family="Times New Roman,serif" font-size="14.00">H1_5</text>
</g>
<!-- input0&#45;&gt;layer0_neuron4 -->
<g id="edge17" class="edge">
<title>input0&#45;&gt;layer0_neuron4</title>
<path fill="none" stroke="black" d="M64.02,-558.86C77.23,-547.64 93.3,-534 107.48,-521.96"/>
<polygon fill="black" stroke="black" points="109.52,-524.82 114.87,-515.68 104.98,-519.49 109.52,-524.82"/>
</g>
<!-- input1 -->
<g id="node2" class="node">
<title>input1</title>
<ellipse fill="red" stroke="black" cx="36" cy="-491.8" rx="36" ry="36"/>
<text text-anchor="middle" x="36" y="-486.75" font-family="Times New Roman,serif" font-size="14.00">X2</text>
</g>
<!-- input1&#45;&gt;layer0_neuron0 -->
<g id="edge18" class="edge">
<title>input1&#45;&gt;layer0_neuron0</title>
<path fill="none" stroke="black" d="M64.02,-468.86C77.23,-457.64 93.3,-444 107.48,-431.96"/>
<polygon fill="black" stroke="black" points="109.52,-434.82 114.87,-425.68 104.98,-429.49 109.52,-434.82"/>
</g>
<!-- input1&#45;&gt;layer0_neuron1 -->
<g id="edge19" class="edge">
<title>input1&#45;&gt;layer0_neuron1</title>
<path fill="none" stroke="black" d="M60.12,-464.57C64.37,-458.9 68.55,-452.81 72,-446.8 93.44,-409.43 86.56,-394.17 108,-356.8 109.62,-353.98 111.39,-351.15 113.26,-348.35"/>
<polygon fill="black" stroke="black" points="116.07,-350.44 119,-340.26 110.36,-346.39 116.07,-350.44"/>
</g>
<!-- input1&#45;&gt;layer0_neuron2 -->
<g id="edge20" class="edge">
<title>input1&#45;&gt;layer0_neuron2</title>
<path fill="none" stroke="black" d="M60.12,-519.03C64.37,-524.7 68.55,-530.79 72,-536.8 93.44,-574.17 86.56,-589.43 108,-626.8 109.62,-629.62 111.39,-632.45 113.26,-635.25"/>
<polygon fill="black" stroke="black" points="110.36,-637.21 119,-643.34 116.07,-633.16 110.36,-637.21"/>
</g>
<!-- input1&#45;&gt;layer0_neuron3 -->
<g id="edge21" class="edge">
<title>input1&#45;&gt;layer0_neuron3</title>
<path fill="none" stroke="black" d="M64.02,-514.74C77.23,-525.96 93.3,-539.6 107.48,-551.64"/>
<polygon fill="black" stroke="black" points="104.98,-554.11 114.87,-557.92 109.52,-548.78 104.98,-554.11"/>
</g>
<!-- input1&#45;&gt;layer0_neuron4 -->
<g id="edge22" class="edge">
<title>input1&#45;&gt;layer0_neuron4</title>
<path fill="none" stroke="black" d="M72.3,-491.8C80.07,-491.8 88.43,-491.8 96.57,-491.8"/>
<polygon fill="black" stroke="black" points="96.34,-495.3 106.34,-491.8 96.34,-488.3 96.34,-495.3"/>
</g>
<!-- input2 -->
<g id="node3" class="node">
<title>input2</title>
<ellipse fill="red" stroke="black" cx="36" cy="-401.8" rx="36" ry="36"/>
<text text-anchor="middle" x="36" y="-396.75" font-family="Times New Roman,serif" font-size="14.00">X3</text>
</g>
<!-- input2&#45;&gt;layer0_neuron0 -->
<g id="edge23" class="edge">
<title>input2&#45;&gt;layer0_neuron0</title>
<path fill="none" stroke="black" d="M72.3,-401.8C80.07,-401.8 88.43,-401.8 96.57,-401.8"/>
<polygon fill="black" stroke="black" points="96.34,-405.3 106.34,-401.8 96.34,-398.3 96.34,-405.3"/>
</g>
<!-- input2&#45;&gt;layer0_neuron1 -->
<g id="edge24" class="edge">
<title>input2&#45;&gt;layer0_neuron1</title>
<path fill="none" stroke="black" d="M64.02,-378.86C77.23,-367.64 93.3,-354 107.48,-341.96"/>
<polygon fill="black" stroke="black" points="109.52,-344.82 114.87,-335.68 104.98,-339.49 109.52,-344.82"/>
</g>
<!-- input2&#45;&gt;layer0_neuron2 -->
<g id="edge25" class="edge">
<title>input2&#45;&gt;layer0_neuron2</title>
<path fill="none" stroke="black" d="M60.66,-428.08C64.97,-433.93 69.03,-440.32 72,-446.8 105.95,-520.98 74.05,-552.62 108,-626.8 109.44,-629.94 111.13,-633.06 112.99,-636.1"/>
<polygon fill="black" stroke="black" points="110,-637.94 118.5,-644.26 115.8,-634.02 110,-637.94"/>
</g>
<!-- input2&#45;&gt;layer0_neuron3 -->
<g id="edge26" class="edge">
<title>input2&#45;&gt;layer0_neuron3</title>
<path fill="none" stroke="black" d="M60.12,-429.03C64.37,-434.7 68.55,-440.79 72,-446.8 93.44,-484.17 86.56,-499.43 108,-536.8 109.62,-539.62 111.39,-542.45 113.26,-545.25"/>
<polygon fill="black" stroke="black" points="110.36,-547.21 119,-553.34 116.07,-543.16 110.36,-547.21"/>
</g>
<!-- input2&#45;&gt;layer0_neuron4 -->
<g id="edge27" class="edge">
<title>input2&#45;&gt;layer0_neuron4</title>
<path fill="none" stroke="black" d="M64.02,-424.74C77.23,-435.96 93.3,-449.6 107.48,-461.64"/>
<polygon fill="black" stroke="black" points="104.98,-464.11 114.87,-467.92 109.52,-458.78 104.98,-464.11"/>
</g>
<!-- layer1_neuron0 -->
<g id="node10" class="node">
<title>layer1_neuron0</title>
<ellipse fill="yellow" stroke="black" cx="252" cy="-401.8" rx="36" ry="36"/>
<text text-anchor="middle" x="252" y="-396.75" font-family="Times New Roman,serif" font-size="14.00">H2_1</text>
</g>
<!-- layer0_neuron0&#45;&gt;layer1_neuron0 -->
<g id="edge28" class="edge">
<title>layer0_neuron0&#45;&gt;layer1_neuron0</title>
<path fill="none" stroke="black" d="M180.3,-401.8C188.07,-401.8 196.43,-401.8 204.57,-401.8"/>
<polygon fill="black" stroke="black" points="204.34,-405.3 214.34,-401.8 204.34,-398.3 204.34,-405.3"/>
</g>
<!-- layer1_neuron1 -->
<g id="node11" class="node">
<title>layer1_neuron1</title>
<ellipse fill="yellow" stroke="black" cx="252" cy="-311.8" rx="36" ry="36"/>
<text text-anchor="middle" x="252" y="-306.75" font-family="Times New Roman,serif" font-size="14.00">H2_2</text>
</g>
<!-- layer0_neuron0&#45;&gt;layer1_neuron1 -->
<g id="edge29" class="edge">
<title>layer0_neuron0&#45;&gt;layer1_neuron1</title>
<path fill="none" stroke="black" d="M172.02,-378.86C185.23,-367.64 201.3,-354 215.48,-341.96"/>
<polygon fill="black" stroke="black" points="217.52,-344.82 222.87,-335.68 212.98,-339.49 217.52,-344.82"/>
</g>
<!-- layer1_neuron2 -->
<g id="node12" class="node">
<title>layer1_neuron2</title>
<ellipse fill="yellow" stroke="black" cx="252" cy="-671.8" rx="36" ry="36"/>
<text text-anchor="middle" x="252" y="-666.75" font-family="Times New Roman,serif" font-size="14.00">H2_3</text>
</g>
<!-- layer0_neuron0&#45;&gt;layer1_neuron2 -->
<g id="edge30" class="edge">
<title>layer0_neuron0&#45;&gt;layer1_neuron2</title>
<path fill="none" stroke="black" d="M168.66,-428.08C172.97,-433.93 177.03,-440.32 180,-446.8 213.95,-520.98 182.05,-552.62 216,-626.8 217.44,-629.94 219.13,-633.06 220.99,-636.1"/>
<polygon fill="black" stroke="black" points="218,-637.94 226.5,-644.26 223.8,-634.02 218,-637.94"/>
</g>
<!-- layer1_neuron3 -->
<g id="node13" class="node">
<title>layer1_neuron3</title>
<ellipse fill="yellow" stroke="black" cx="252" cy="-581.8" rx="36" ry="36"/>
<text text-anchor="middle" x="252" y="-576.75" font-family="Times New Roman,serif" font-size="14.00">H2_4</text>
</g>
<!-- layer0_neuron0&#45;&gt;layer1_neuron3 -->
<g id="edge31" class="edge">
<title>layer0_neuron0&#45;&gt;layer1_neuron3</title>
<path fill="none" stroke="black" d="M168.12,-429.03C172.37,-434.7 176.55,-440.79 180,-446.8 201.44,-484.17 194.56,-499.43 216,-536.8 217.62,-539.62 219.39,-542.45 221.26,-545.25"/>
<polygon fill="black" stroke="black" points="218.36,-547.21 227,-553.34 224.07,-543.16 218.36,-547.21"/>
</g>
<!-- layer1_neuron4 -->
<g id="node14" class="node">
<title>layer1_neuron4</title>
<ellipse fill="yellow" stroke="black" cx="252" cy="-491.8" rx="36" ry="36"/>
<text text-anchor="middle" x="252" y="-486.75" font-family="Times New Roman,serif" font-size="14.00">H2_5</text>
</g>
<!-- layer0_neuron0&#45;&gt;layer1_neuron4 -->
<g id="edge32" class="edge">
<title>layer0_neuron0&#45;&gt;layer1_neuron4</title>
<path fill="none" stroke="black" d="M172.02,-424.74C185.23,-435.96 201.3,-449.6 215.48,-461.64"/>
<polygon fill="black" stroke="black" points="212.98,-464.11 222.87,-467.92 217.52,-458.78 212.98,-464.11"/>
</g>
<!-- layer0_neuron1&#45;&gt;layer1_neuron0 -->
<g id="edge33" class="edge">
<title>layer0_neuron1&#45;&gt;layer1_neuron0</title>
<path fill="none" stroke="black" d="M172.02,-334.74C185.23,-345.96 201.3,-359.6 215.48,-371.64"/>
<polygon fill="black" stroke="black" points="212.98,-374.11 222.87,-377.92 217.52,-368.78 212.98,-374.11"/>
</g>
<!-- layer0_neuron1&#45;&gt;layer1_neuron1 -->
<g id="edge34" class="edge">
<title>layer0_neuron1&#45;&gt;layer1_neuron1</title>
<path fill="none" stroke="black" d="M180.3,-311.8C188.07,-311.8 196.43,-311.8 204.57,-311.8"/>
<polygon fill="black" stroke="black" points="204.34,-315.3 214.34,-311.8 204.34,-308.3 204.34,-315.3"/>
</g>
<!-- layer0_neuron1&#45;&gt;layer1_neuron2 -->
<g id="edge35" class="edge">
<title>layer0_neuron1&#45;&gt;layer1_neuron2</title>
<path fill="none" stroke="black" d="M168.98,-337.94C173.27,-343.79 177.25,-350.23 180,-356.8 226.79,-468.46 169.21,-515.14 216,-626.8 217.33,-629.98 218.95,-633.13 220.76,-636.2"/>
<polygon fill="black" stroke="black" points="217.74,-637.99 226.18,-644.4 223.58,-634.13 217.74,-637.99"/>
</g>
<!-- layer0_neuron1&#45;&gt;layer1_neuron3 -->
<g id="edge36" class="edge">
<title>layer0_neuron1&#45;&gt;layer1_neuron3</title>
<path fill="none" stroke="black" d="M168.66,-338.08C172.97,-343.93 177.03,-350.32 180,-356.8 213.95,-430.98 182.05,-462.62 216,-536.8 217.44,-539.94 219.13,-543.06 220.99,-546.1"/>
<polygon fill="black" stroke="black" points="218,-547.94 226.5,-554.26 223.8,-544.02 218,-547.94"/>
</g>
<!-- layer0_neuron1&#45;&gt;layer1_neuron4 -->
<g id="edge37" class="edge">
<title>layer0_neuron1&#45;&gt;layer1_neuron4</title>
<path fill="none" stroke="black" d="M168.12,-339.03C172.37,-344.7 176.55,-350.79 180,-356.8 201.44,-394.17 194.56,-409.43 216,-446.8 217.62,-449.62 219.39,-452.45 221.26,-455.25"/>
<polygon fill="black" stroke="black" points="218.36,-457.21 227,-463.34 224.07,-453.16 218.36,-457.21"/>
</g>
<!-- layer0_neuron2&#45;&gt;layer1_neuron0 -->
<g id="edge38" class="edge">
<title>layer0_neuron2&#45;&gt;layer1_neuron0</title>
<path fill="none" stroke="black" d="M168.66,-645.52C172.97,-639.67 177.03,-633.28 180,-626.8 213.95,-552.62 182.05,-520.98 216,-446.8 217.44,-443.66 219.13,-440.54 220.99,-437.5"/>
<polygon fill="black" stroke="black" points="223.8,-439.58 226.5,-429.34 218,-435.66 223.8,-439.58"/>
</g>
<!-- layer0_neuron2&#45;&gt;layer1_neuron1 -->
<g id="edge39" class="edge">
<title>layer0_neuron2&#45;&gt;layer1_neuron1</title>
<path fill="none" stroke="black" d="M168.98,-645.66C173.27,-639.81 177.25,-633.37 180,-626.8 226.79,-515.14 169.21,-468.46 216,-356.8 217.33,-353.62 218.95,-350.47 220.76,-347.4"/>
<polygon fill="black" stroke="black" points="223.58,-349.47 226.18,-339.2 217.74,-345.61 223.58,-349.47"/>
</g>
<!-- layer0_neuron2&#45;&gt;layer1_neuron2 -->
<g id="edge40" class="edge">
<title>layer0_neuron2&#45;&gt;layer1_neuron2</title>
<path fill="none" stroke="black" d="M180.3,-671.8C188.07,-671.8 196.43,-671.8 204.57,-671.8"/>
<polygon fill="black" stroke="black" points="204.34,-675.3 214.34,-671.8 204.34,-668.3 204.34,-675.3"/>
</g>
<!-- layer0_neuron2&#45;&gt;layer1_neuron3 -->
<g id="edge41" class="edge">
<title>layer0_neuron2&#45;&gt;layer1_neuron3</title>
<path fill="none" stroke="black" d="M172.02,-648.86C185.23,-637.64 201.3,-624 215.48,-611.96"/>
<polygon fill="black" stroke="black" points="217.52,-614.82 222.87,-605.68 212.98,-609.49 217.52,-614.82"/>
</g>
<!-- layer0_neuron2&#45;&gt;layer1_neuron4 -->
<g id="edge42" class="edge">
<title>layer0_neuron2&#45;&gt;layer1_neuron4</title>
<path fill="none" stroke="black" d="M168.12,-644.57C172.37,-638.9 176.55,-632.81 180,-626.8 201.44,-589.43 194.56,-574.17 216,-536.8 217.62,-533.98 219.39,-531.15 221.26,-528.35"/>
<polygon fill="black" stroke="black" points="224.07,-530.44 227,-520.26 218.36,-526.39 224.07,-530.44"/>
</g>
<!-- layer0_neuron3&#45;&gt;layer1_neuron0 -->
<g id="edge43" class="edge">
<title>layer0_neuron3&#45;&gt;layer1_neuron0</title>
<path fill="none" stroke="black" d="M168.12,-554.57C172.37,-548.9 176.55,-542.81 180,-536.8 201.44,-499.43 194.56,-484.17 216,-446.8 217.62,-443.98 219.39,-441.15 221.26,-438.35"/>
<polygon fill="black" stroke="black" points="224.07,-440.44 227,-430.26 218.36,-436.39 224.07,-440.44"/>
</g>
<!-- layer0_neuron3&#45;&gt;layer1_neuron1 -->
<g id="edge44" class="edge">
<title>layer0_neuron3&#45;&gt;layer1_neuron1</title>
<path fill="none" stroke="black" d="M168.66,-555.52C172.97,-549.67 177.03,-543.28 180,-536.8 213.95,-462.62 182.05,-430.98 216,-356.8 217.44,-353.66 219.13,-350.54 220.99,-347.5"/>
<polygon fill="black" stroke="black" points="223.8,-349.58 226.5,-339.34 218,-345.66 223.8,-349.58"/>
</g>
<!-- layer0_neuron3&#45;&gt;layer1_neuron2 -->
<g id="edge45" class="edge">
<title>layer0_neuron3&#45;&gt;layer1_neuron2</title>
<path fill="none" stroke="black" d="M172.02,-604.74C185.23,-615.96 201.3,-629.6 215.48,-641.64"/>
<polygon fill="black" stroke="black" points="212.98,-644.11 222.87,-647.92 217.52,-638.78 212.98,-644.11"/>
</g>
<!-- layer0_neuron3&#45;&gt;layer1_neuron3 -->
<g id="edge46" class="edge">
<title>layer0_neuron3&#45;&gt;layer1_neuron3</title>
<path fill="none" stroke="black" d="M180.3,-581.8C188.07,-581.8 196.43,-581.8 204.57,-581.8"/>
<polygon fill="black" stroke="black" points="204.34,-585.3 214.34,-581.8 204.34,-578.3 204.34,-585.3"/>
</g>
<!-- layer0_neuron3&#45;&gt;layer1_neuron4 -->
<g id="edge47" class="edge">
<title>layer0_neuron3&#45;&gt;layer1_neuron4</title>
<path fill="none" stroke="black" d="M172.02,-558.86C185.23,-547.64 201.3,-534 215.48,-521.96"/>
<polygon fill="black" stroke="black" points="217.52,-524.82 222.87,-515.68 212.98,-519.49 217.52,-524.82"/>
</g>
<!-- layer0_neuron4&#45;&gt;layer1_neuron0 -->
<g id="edge48" class="edge">
<title>layer0_neuron4&#45;&gt;layer1_neuron0</title>
<path fill="none" stroke="black" d="M172.02,-468.86C185.23,-457.64 201.3,-444 215.48,-431.96"/>
<polygon fill="black" stroke="black" points="217.52,-434.82 222.87,-425.68 212.98,-429.49 217.52,-434.82"/>
</g>
<!-- layer0_neuron4&#45;&gt;layer1_neuron1 -->
<g id="edge49" class="edge">
<title>layer0_neuron4&#45;&gt;layer1_neuron1</title>
<path fill="none" stroke="black" d="M168.12,-464.57C172.37,-458.9 176.55,-452.81 180,-446.8 201.44,-409.43 194.56,-394.17 216,-356.8 217.62,-353.98 219.39,-351.15 221.26,-348.35"/>
<polygon fill="black" stroke="black" points="224.07,-350.44 227,-340.26 218.36,-346.39 224.07,-350.44"/>
</g>
<!-- layer0_neuron4&#45;&gt;layer1_neuron2 -->
<g id="edge50" class="edge">
<title>layer0_neuron4&#45;&gt;layer1_neuron2</title>
<path fill="none" stroke="black" d="M168.12,-519.03C172.37,-524.7 176.55,-530.79 180,-536.8 201.44,-574.17 194.56,-589.43 216,-626.8 217.62,-629.62 219.39,-632.45 221.26,-635.25"/>
<polygon fill="black" stroke="black" points="218.36,-637.21 227,-643.34 224.07,-633.16 218.36,-637.21"/>
</g>
<!-- layer0_neuron4&#45;&gt;layer1_neuron3 -->
<g id="edge51" class="edge">
<title>layer0_neuron4&#45;&gt;layer1_neuron3</title>
<path fill="none" stroke="black" d="M172.02,-514.74C185.23,-525.96 201.3,-539.6 215.48,-551.64"/>
<polygon fill="black" stroke="black" points="212.98,-554.11 222.87,-557.92 217.52,-548.78 212.98,-554.11"/>
</g>
<!-- layer0_neuron4&#45;&gt;layer1_neuron4 -->
<g id="edge52" class="edge">
<title>layer0_neuron4&#45;&gt;layer1_neuron4</title>
<path fill="none" stroke="black" d="M180.3,-491.8C188.07,-491.8 196.43,-491.8 204.57,-491.8"/>
<polygon fill="black" stroke="black" points="204.34,-495.3 214.34,-491.8 204.34,-488.3 204.34,-495.3"/>
</g>
<!-- bias1 -->
<g id="node9" class="node">
<title>bias1</title>
<ellipse fill="gray" stroke="black" cx="36" cy="-279.8" rx="28.8" ry="28.8"/>
<text text-anchor="middle" x="36" y="-274.75" font-family="Times New Roman,serif" font-size="14.00">B1</text>
</g>
<!-- bias1&#45;&gt;layer0_neuron0 -->
<g id="edge1" class="edge">
<title>bias1&#45;&gt;layer0_neuron0</title>
<path fill="none" stroke="black" d="M55.71,-301.33C71.31,-319.29 93.86,-345.24 112.13,-366.27"/>
<polygon fill="black" stroke="black" points="109.47,-368.55 118.67,-373.8 114.76,-363.96 109.47,-368.55"/>
</g>
<!-- bias1&#45;&gt;layer0_neuron1 -->
<g id="edge2" class="edge">
<title>bias1&#45;&gt;layer0_neuron1</title>
<path fill="none" stroke="black" d="M64.02,-287.96C74.43,-291.1 86.62,-294.78 98.27,-298.3"/>
<polygon fill="black" stroke="black" points="97.15,-301.62 107.74,-301.16 99.18,-294.91 97.15,-301.62"/>
</g>
<!-- bias1&#45;&gt;layer0_neuron2 -->
<g id="edge3" class="edge">
<title>bias1&#45;&gt;layer0_neuron2</title>
<path fill="none" stroke="black" d="M50.61,-304.75C58.06,-319.48 66.81,-338.73 72,-356.8 105.41,-473.16 61.21,-515.14 108,-626.8 109.33,-629.98 110.95,-633.13 112.76,-636.2"/>
<polygon fill="black" stroke="black" points="109.74,-637.99 118.18,-644.4 115.58,-634.13 109.74,-637.99"/>
</g>
<!-- bias1&#45;&gt;layer0_neuron3 -->
<g id="edge4" class="edge">
<title>bias1&#45;&gt;layer0_neuron3</title>
<path fill="none" stroke="black" d="M50.34,-305.23C57.62,-319.96 66.28,-339.05 72,-356.8 97.04,-434.45 74.05,-462.62 108,-536.8 109.44,-539.94 111.13,-543.06 112.99,-546.1"/>
<polygon fill="black" stroke="black" points="110,-547.94 118.5,-554.26 115.8,-544.02 110,-547.94"/>
</g>
<!-- bias1&#45;&gt;layer0_neuron4 -->
<g id="edge5" class="edge">
<title>bias1&#45;&gt;layer0_neuron4</title>
<path fill="none" stroke="black" d="M49.13,-305.69C56.01,-320.56 64.68,-339.65 72,-356.8 88.92,-396.42 86.56,-409.43 108,-446.8 109.62,-449.62 111.39,-452.45 113.26,-455.25"/>
<polygon fill="black" stroke="black" points="110.36,-457.21 119,-463.34 116.07,-453.16 110.36,-457.21"/>
</g>
<!-- layer2_neuron0 -->
<g id="node16" class="node">
<title>layer2_neuron0</title>
<ellipse fill="green" stroke="black" cx="360" cy="-536.8" rx="36" ry="36"/>
<text text-anchor="middle" x="360" y="-531.75" font-family="Times New Roman,serif" font-size="14.00">O1</text>
</g>
<!-- layer1_neuron0&#45;&gt;layer2_neuron0 -->
<g id="edge53" class="edge">
<title>layer1_neuron0&#45;&gt;layer2_neuron0</title>
<path fill="none" stroke="black" d="M274.96,-429.77C290.95,-450.14 312.76,-477.91 330.15,-500.06"/>
<polygon fill="black" stroke="black" points="327.2,-501.97 336.13,-507.67 332.71,-497.65 327.2,-501.97"/>
</g>
<!-- layer2_neuron1 -->
<g id="node17" class="node">
<title>layer2_neuron1</title>
<ellipse fill="green" stroke="black" cx="360" cy="-446.8" rx="36" ry="36"/>
<text text-anchor="middle" x="360" y="-441.75" font-family="Times New Roman,serif" font-size="14.00">O2</text>
</g>
<!-- layer1_neuron0&#45;&gt;layer2_neuron1 -->
<g id="edge54" class="edge">
<title>layer1_neuron0&#45;&gt;layer2_neuron1</title>
<path fill="none" stroke="black" d="M285.67,-415.67C295.24,-419.73 305.85,-424.24 315.97,-428.53"/>
<polygon fill="black" stroke="black" points="314.29,-431.62 324.86,-432.31 317.03,-425.18 314.29,-431.62"/>
</g>
<!-- layer1_neuron1&#45;&gt;layer2_neuron0 -->
<g id="edge55" class="edge">
<title>layer1_neuron1&#45;&gt;layer2_neuron0</title>
<path fill="none" stroke="black" d="M276.34,-338.23C280.68,-344.07 284.83,-350.42 288,-356.8 315.61,-412.42 296.39,-436.18 324,-491.8 325.53,-494.89 327.3,-497.98 329.21,-501"/>
<polygon fill="black" stroke="black" points="326.25,-502.87 334.8,-509.12 332.01,-498.9 326.25,-502.87"/>
</g>
<!-- layer1_neuron1&#45;&gt;layer2_neuron1 -->
<g id="edge56" class="edge">
<title>layer1_neuron1&#45;&gt;layer2_neuron1</title>
<path fill="none" stroke="black" d="M274.96,-339.77C290.95,-360.14 312.76,-387.91 330.15,-410.06"/>
<polygon fill="black" stroke="black" points="327.2,-411.97 336.13,-417.67 332.71,-407.65 327.2,-411.97"/>
</g>
<!-- layer1_neuron2&#45;&gt;layer2_neuron0 -->
<g id="edge57" class="edge">
<title>layer1_neuron2&#45;&gt;layer2_neuron0</title>
<path fill="none" stroke="black" d="M274.96,-643.83C290.95,-623.46 312.76,-595.69 330.15,-573.54"/>
<polygon fill="black" stroke="black" points="332.71,-575.95 336.13,-565.93 327.2,-571.63 332.71,-575.95"/>
</g>
<!-- layer1_neuron2&#45;&gt;layer2_neuron1 -->
<g id="edge58" class="edge">
<title>layer1_neuron2&#45;&gt;layer2_neuron1</title>
<path fill="none" stroke="black" d="M276.34,-645.37C280.68,-639.53 284.83,-633.18 288,-626.8 315.61,-571.18 296.39,-547.42 324,-491.8 325.53,-488.71 327.3,-485.62 329.21,-482.6"/>
<polygon fill="black" stroke="black" points="332.01,-484.7 334.8,-474.48 326.25,-480.73 332.01,-484.7"/>
</g>
<!-- layer1_neuron3&#45;&gt;layer2_neuron0 -->
<g id="edge59" class="edge">
<title>layer1_neuron3&#45;&gt;layer2_neuron0</title>
<path fill="none" stroke="black" d="M285.67,-567.93C295.24,-563.87 305.85,-559.36 315.97,-555.07"/>
<polygon fill="black" stroke="black" points="317.03,-558.42 324.86,-551.29 314.29,-551.98 317.03,-558.42"/>
</g>
<!-- layer1_neuron3&#45;&gt;layer2_neuron1 -->
<g id="edge60" class="edge">
<title>layer1_neuron3&#45;&gt;layer2_neuron1</title>
<path fill="none" stroke="black" d="M274.96,-553.83C290.95,-533.46 312.76,-505.69 330.15,-483.54"/>
<polygon fill="black" stroke="black" points="332.71,-485.95 336.13,-475.93 327.2,-481.63 332.71,-485.95"/>
</g>
<!-- layer1_neuron4&#45;&gt;layer2_neuron0 -->
<g id="edge61" class="edge">
<title>layer1_neuron4&#45;&gt;layer2_neuron0</title>
<path fill="none" stroke="black" d="M285.67,-505.67C295.24,-509.73 305.85,-514.24 315.97,-518.53"/>
<polygon fill="black" stroke="black" points="314.29,-521.62 324.86,-522.31 317.03,-515.18 314.29,-521.62"/>
</g>
<!-- layer1_neuron4&#45;&gt;layer2_neuron1 -->
<g id="edge62" class="edge">
<title>layer1_neuron4&#45;&gt;layer2_neuron1</title>
<path fill="none" stroke="black" d="M285.67,-477.93C295.24,-473.87 305.85,-469.36 315.97,-465.07"/>
<polygon fill="black" stroke="black" points="317.03,-468.42 324.86,-461.29 314.29,-461.98 317.03,-468.42"/>
</g>
<!-- bias2 -->
<g id="node15" class="node">
<title>bias2</title>
<ellipse fill="gray" stroke="black" cx="36" cy="-104.8" rx="28.8" ry="28.8"/>
<text text-anchor="middle" x="36" y="-99.75" font-family="Times New Roman,serif" font-size="14.00">B2</text>
</g>
<!-- bias2&#45;&gt;layer1_neuron0 -->
<g id="edge6" class="edge">
<title>bias2&#45;&gt;layer1_neuron0</title>
<path fill="none" stroke="black" d="M49.76,-130.56C62.39,-154.41 83.37,-189.98 108,-215.8 135.07,-244.18 155.73,-236 180,-266.8 206.67,-300.63 194.56,-319.43 216,-356.8 217.62,-359.62 219.39,-362.45 221.26,-365.25"/>
<polygon fill="black" stroke="black" points="218.36,-367.21 227,-373.34 224.07,-363.16 218.36,-367.21"/>
</g>
<!-- bias2&#45;&gt;layer1_neuron1 -->
<g id="edge7" class="edge">
<title>bias2&#45;&gt;layer1_neuron1</title>
<path fill="none" stroke="black" d="M58.43,-122.97C86.94,-147.39 138.53,-192.52 180,-233.8 193.65,-247.39 208.07,-262.98 220.32,-276.63"/>
<polygon fill="black" stroke="black" points="217.37,-278.58 226.63,-283.71 222.59,-273.92 217.37,-278.58"/>
</g>
<!-- bias2&#45;&gt;layer1_neuron2 -->
<g id="edge8" class="edge">
<title>bias2&#45;&gt;layer1_neuron2</title>
<path fill="none" stroke="black" d="M59.36,-122.12C92.27,-149.05 152.77,-204.39 180,-266.8 244.31,-414.18 156.3,-477.49 216,-626.8 217.28,-630.01 218.86,-633.17 220.64,-636.25"/>
<polygon fill="black" stroke="black" points="217.61,-638.02 226.02,-644.47 223.47,-634.18 217.61,-638.02"/>
</g>
<!-- bias2&#45;&gt;layer1_neuron3 -->
<g id="edge9" class="edge">
<title>bias2&#45;&gt;layer1_neuron3</title>
<path fill="none" stroke="black" d="M64.42,-111.28C101.76,-120.69 165.6,-139.06 180,-157.8 231.55,-224.88 184.79,-458.17 216,-536.8 217.27,-540.01 218.85,-543.18 220.62,-546.26"/>
<polygon fill="black" stroke="black" points="217.59,-548.02 225.99,-554.47 223.45,-544.19 217.59,-548.02"/>
</g>
<!-- bias2&#45;&gt;layer1_neuron4 -->
<g id="edge10" class="edge">
<title>bias2&#45;&gt;layer1_neuron4</title>
<path fill="none" stroke="black" d="M64.39,-98.61C96.73,-93.08 149.92,-89.87 180,-119.8 231.83,-171.36 188.52,-379.06 216,-446.8 217.3,-450 218.89,-453.16 220.68,-456.24"/>
<polygon fill="black" stroke="black" points="217.65,-458.01 226.07,-464.45 223.5,-454.17 217.65,-458.01"/>
</g>
<!-- bias3 -->
<g id="node18" class="node">
<title>bias3</title>
<ellipse fill="gray" stroke="black" cx="36" cy="-28.8" rx="28.8" ry="28.8"/>
<text text-anchor="middle" x="36" y="-23.75" font-family="Times New Roman,serif" font-size="14.00">B3</text>
</g>
<!-- bias3&#45;&gt;layer2_neuron0 -->
<g id="edge11" class="edge">
<title>bias3&#45;&gt;layer2_neuron0</title>
<path fill="none" stroke="black" d="M64.46,-35.33C95.42,-43.82 145.87,-61.18 180,-90.8 249.31,-150.95 256.14,-180.73 288,-266.8 323.16,-361.77 283.65,-398.92 324,-491.8 325.38,-494.97 327.03,-498.1 328.85,-501.16"/>
<polygon fill="black" stroke="black" points="325.85,-502.97 334.31,-509.35 331.67,-499.09 325.85,-502.97"/>
</g>
<!-- bias3&#45;&gt;layer2_neuron1 -->
<g id="edge12" class="edge">
<title>bias3&#45;&gt;layer2_neuron1</title>
<path fill="none" stroke="black" d="M63.85,-20.52C94.02,-12.85 143.54,-5.29 180,-24.8 316.93,-98.08 349.11,-304.87 356.68,-399.03"/>
<polygon fill="black" stroke="black" points="353.18,-399.25 357.41,-408.97 360.16,-398.74 353.18,-399.25"/>
</g>
</g>
</svg>
